<?xml version="1.0" standalone="no"?>
<!DOCTYPE svg PUBLIC "-//W3C//DTD SVG 20010904//EN"
 "http://www.w3.org/TR/2001/REC-SVG-20010904/DTD/svg10.dtd">
<svg version="1.0" xmlns="http://www.w3.org/2000/svg"
 width="250.000000pt" height="75.000000pt" viewBox="0 0 250.000000 75.000000"
 preserveAspectRatio="xMidYMid meet">

<g transform="translate(0.000000,75.000000) scale(0.100000,-0.100000)"
fill="#000000" stroke="none">
<path d="M305 710 c-17 -4 -42 -14 -55 -22 -14 -9 -39 -19 -56 -23 -37 -7 -79
-45 -51 -45 9 0 19 4 22 10 11 17 50 4 48 -16 -5 -45 8 -45 52 1 46 47 81 93
74 99 -2 1 -18 0 -34 -4z"/>
<path d="M760 665 c0 -3 19 -42 42 -88 28 -55 44 -100 48 -137 l5 -55 38 -3
37 -3 0 47 c0 38 10 66 50 140 28 51 50 95 50 98 0 3 -20 6 -43 6 -44 0 -44 0
-69 -57 l-24 -58 -27 58 c-25 56 -27 57 -66 57 -23 0 -41 -2 -41 -5z"/>
<path d="M1060 525 l0 -145 90 0 90 0 0 35 0 35 -50 0 c-47 0 -50 2 -50 25 0
23 4 25 45 25 43 0 45 1 45 30 0 29 -2 30 -45 30 -41 0 -45 2 -45 25 0 23 3
25 50 25 49 0 50 1 50 30 l0 30 -90 0 -90 0 0 -145z"/>
<path d="M1290 525 l0 -145 80 0 80 0 0 29 c0 28 -3 30 -42 33 l-43 3 -3 113
-3 112 -34 0 -35 0 0 -145z"/>
<path d="M1490 525 l0 -146 83 3 c81 3 82 3 85 31 3 26 2 27 -42 27 l-46 0 0
115 0 115 -40 0 -40 0 0 -145z"/>
<path d="M1745 650 c-82 -54 -87 -178 -9 -239 57 -45 146 -36 199 19 36 38 46
119 21 169 -36 68 -145 95 -211 51z m127 -67 c21 -19 24 -81 6 -106 -37 -47
-118 -16 -118 47 0 46 25 76 62 76 17 0 40 -7 50 -17z"/>
<path d="M2004 653 c3 -10 17 -67 31 -128 15 -60 29 -118 31 -127 4 -14 16
-18 53 -18 l48 0 18 85 c10 47 21 82 25 78 4 -4 12 -35 19 -68 21 -100 17 -95
71 -95 l49 0 11 53 c6 28 21 94 34 145 l24 92 -43 0 -42 0 -13 -77 c-19 -113
-25 -117 -44 -27 -24 112 -20 106 -68 102 l-43 -3 -20 -87 c-11 -49 -23 -88
-26 -88 -3 0 -12 41 -19 90 l-13 90 -44 0 c-38 0 -44 -3 -39 -17z"/>
<path d="M525 650 c-12 -4 -27 -15 -35 -25 -12 -14 -12 -18 1 -26 22 -14 39
-11 39 9 0 14 2 15 9 2 14 -20 2 -33 -25 -27 -13 2 -24 0 -24 -4 0 -15 -22
-10 -37 9 -12 15 -13 13 -9 -20 3 -27 0 -38 -10 -38 -19 0 -28 -20 -15 -33 8
-8 2 -18 -19 -37 -68 -61 -41 -125 53 -125 56 0 53 5 63 -100 8 -81 13 -95 34
-95 24 0 95 104 92 134 0 11 10 32 23 48 29 35 31 48 8 49 -14 0 -15 2 -3 6
26 10 50 35 43 46 -4 6 2 8 16 4 20 -5 22 -3 16 26 -10 47 -42 116 -71 154
-26 35 -51 41 -73 21 -11 -11 -13 -10 -7 0 5 7 -2 16 -19 22 -14 6 -27 10 -28
9 -1 0 -11 -4 -22 -9z m5 -145 c16 -8 33 -15 37 -14 17 3 52 -14 47 -22 -7
-12 -83 -4 -97 10 -6 6 -24 11 -40 11 -25 0 -28 2 -17 15 16 19 33 19 70 0z"/>
<path d="M138 602 c-10 -2 -18 -9 -18 -15 0 -7 -9 -18 -19 -24 -17 -11 -19
-10 -16 8 7 35 -20 4 -44 -50 -23 -55 -36 -149 -23 -169 9 -13 83 -35 91 -27
8 9 -23 36 -36 31 -7 -3 -13 1 -13 10 0 9 9 18 20 21 12 3 30 23 41 44 11 22
23 39 27 39 4 0 13 14 21 31 12 27 12 32 0 40 -11 7 -12 12 -2 28 14 23 -1 40
-29 33z m5 -39 c-18 -47 -30 -61 -43 -53 -12 7 -9 15 15 40 33 35 37 36 28 13z"/>
<path d="M142 339 c-35 -13 -30 -64 11 -103 19 -17 49 -63 67 -103 37 -82 61
-109 87 -98 17 6 17 7 -1 21 -27 19 -23 115 7 152 15 19 12 83 -4 93 -8 5 -25
9 -39 9 -15 0 -31 5 -36 10 -17 17 -68 28 -92 19z"/>
<path d="M1002 207 c-30 -171 -35 -157 53 -157 43 0 75 4 75 10 0 6 -25 10
-55 10 -53 0 -55 1 -55 28 0 61 8 71 63 74 71 4 76 28 7 28 l-53 0 7 38 c3 20
6 43 6 50 0 8 19 12 60 12 47 0 60 3 60 15 0 12 -15 15 -73 15 l-74 0 -21
-123z"/>
<path d="M1292 278 c-107 -191 -124 -228 -105 -228 10 0 26 14 35 31 17 29 20
30 80 27 60 -3 63 -4 66 -30 2 -20 9 -28 23 -28 10 0 19 2 19 4 0 2 -11 63
-25 136 -14 73 -25 134 -25 136 0 2 -9 4 -19 4 -13 0 -29 -18 -49 -52z m54
-73 c6 -36 8 -68 5 -70 -10 -10 -91 -5 -91 6 0 16 61 129 70 129 4 0 11 -29
16 -65z"/>
<path d="M1506 303 c-3 -16 -12 -68 -21 -118 -9 -49 -18 -100 -21 -112 -3 -18
0 -23 14 -23 15 0 21 11 28 53 8 43 13 53 32 55 19 3 26 -6 47 -52 18 -41 30
-56 45 -56 20 0 20 1 4 38 -28 64 -28 77 0 90 38 17 63 74 48 107 -15 32 -49
45 -117 45 -50 0 -54 -2 -59 -27z m132 -15 c18 -18 14 -56 -8 -78 -27 -27
-114 -29 -107 -2 3 9 8 34 12 55 6 36 7 37 48 37 24 0 48 -5 55 -12z"/>
<path d="M1740 315 c0 -10 11 -15 35 -15 27 0 35 -4 35 -17 0 -21 -28 -190
-36 -215 -4 -13 0 -18 14 -18 16 0 21 14 36 102 27 159 23 148 67 148 28 0 39
4 39 15 0 12 -17 15 -95 15 -78 0 -95 -3 -95 -15z"/>
<path d="M1976 293 c-3 -21 -14 -84 -25 -141 -17 -97 -18 -102 -1 -102 13 0
20 14 29 60 l12 60 76 0 c60 0 74 -3 70 -14 -3 -7 -9 -34 -12 -60 -6 -38 -5
-46 9 -46 17 0 18 4 41 135 9 50 18 103 21 118 5 24 3 28 -13 25 -14 -2 -20
-18 -28 -63 l-11 -60 -73 -3 -74 -3 7 51 c4 27 9 57 12 65 4 10 0 15 -14 15
-15 0 -21 -9 -26 -37z"/>
<path d="M26 290 c15 -85 92 -183 168 -215 40 -17 64 -11 32 9 -61 37 -109 83
-148 143 -25 37 -48 75 -51 83 -4 8 -4 -1 -1 -20z"/>
<path d="M664 249 c-17 -22 -24 -48 -14 -54 12 -7 32 31 28 52 -3 14 -5 14
-14 2z"/>
</g>
</svg>
